<svg version="1.1" id="Layer_1" xmlns="http://www.w3.org/2000/svg" xmlns:xlink="http://www.w3.org/1999/xlink" x="0px" y="0px"
	 width="100%" viewBox="0 0 83 100" enable-background="new 0 0 83 100" xml:space="preserve">
<path fill="#000000" opacity="1.000000" stroke="none" 
	d="
M0.999999,93.000000 
	C1.000000,62.426136 1.000000,31.852272 1.000000,1.000000 
	C18.353235,1.000000 35.707958,1.000000 53.877487,1.254694 
	C52.975712,3.980089 53.001060,8.196404 48.286919,7.891080 
	C48.065693,6.220047 47.856812,4.642237 47.647926,3.064428 
	C47.262192,2.881953 46.876453,2.699477 46.490715,2.517002 
	C45.572552,3.921804 44.122158,5.233952 43.857788,6.752570 
	C43.434204,9.185769 42.912071,12.406529 44.121849,14.050803 
	C45.002895,15.248274 48.627087,14.662159 50.992695,14.458161 
	C52.873772,14.295947 54.675602,13.224174 56.557186,13.056571 
	C60.789658,12.679562 63.763054,9.868959 63.986946,5.552752 
	C64.065468,4.039015 63.999817,2.517800 64.000000,1.000000 
	C70.615067,1.000000 77.230125,1.000000 84.000000,1.000000 
	C84.000000,13.020530 84.000000,25.041607 83.666077,37.871452 
	C82.227417,34.009331 81.191544,29.320364 79.973183,24.679306 
	C79.636673,23.397461 78.756729,22.258280 78.126122,21.053644 
	C76.810776,21.880829 74.796562,22.411850 74.299133,23.585655 
	C71.945862,29.138668 70.336494,34.790752 71.456764,41.095226 
	C72.714302,48.172226 73.555710,55.372608 73.875671,62.550625 
	C74.117577,67.977585 68.981506,66.074303 66.112343,66.900658 
	C63.048389,67.783104 62.297390,65.393654 61.998653,62.910164 
	C60.671452,51.876953 59.470570,40.825195 57.890373,29.828087 
	C57.486633,27.018316 55.862782,24.383867 54.688793,21.386192 
	C48.352100,25.593168 48.309559,31.510948 48.177979,36.847107 
	C48.038437,42.505989 49.519169,48.188251 49.799648,53.884563 
	C49.879566,55.507732 48.507084,58.425762 47.349796,58.677502 
	C41.962849,59.849316 36.431488,60.682720 30.924988,60.876797 
	C26.494831,61.032932 23.144831,62.627064 19.953997,65.471199 
	C12.395943,72.208031 8.438636,81.218971 3.954218,89.934471 
	C3.332372,91.143028 2.002239,91.987160 0.999999,93.000000 
z"/>
<path fill="#00FECD" opacity="1.000000" stroke="none" 
	d="
M0.999999,93.494736 
	C2.002239,91.987160 3.332372,91.143028 3.954218,89.934471 
	C8.438636,81.218971 12.395943,72.208031 19.953997,65.471199 
	C23.144831,62.627064 26.494831,61.032932 30.924988,60.876797 
	C36.431488,60.682720 41.962849,59.849316 47.349796,58.677502 
	C48.507084,58.425762 49.879566,55.507732 49.799648,53.884563 
	C49.519169,48.188251 48.038437,42.505989 48.177979,36.847107 
	C48.309559,31.510948 48.352100,25.593168 54.688793,21.386192 
	C55.862782,24.383867 57.486633,27.018316 57.890373,29.828087 
	C59.470570,40.825195 60.671452,51.876953 61.998653,62.910164 
	C62.297390,65.393654 63.048389,67.783104 66.112343,66.900658 
	C68.981506,66.074303 74.117577,67.977585 73.875671,62.550625 
	C73.555710,55.372608 72.714302,48.172226 71.456764,41.095226 
	C70.336494,34.790752 71.945862,29.138668 74.299133,23.585655 
	C74.796562,22.411850 76.810776,21.880829 78.126122,21.053644 
	C78.756729,22.258280 79.636673,23.397461 79.973183,24.679306 
	C81.191544,29.320364 82.227417,34.009331 83.666077,38.340111 
	C84.000000,48.020893 84.000000,58.041790 83.746971,68.200096 
	C78.585495,76.753838 71.217476,81.461533 61.623009,82.723099 
	C57.755791,83.231598 54.414589,82.291000 53.116592,78.168976 
	C52.306828,75.597427 52.037441,72.855705 51.356430,69.309715 
	C45.642925,77.082390 37.837368,77.446808 29.699144,77.041122 
	C25.134462,76.813583 20.582014,78.058685 17.931353,81.767021 
	C13.553576,87.891624 9.937233,94.560501 6.000001,101.000000 
	C4.398595,101.000000 2.797190,101.000000 1.000000,101.000000 
	C1.000000,98.664818 1.000000,96.327141 0.999999,93.494736 
z"/>
<path fill="#000000" opacity="1.000000" stroke="none" 
	d="
M6.468658,101.000000 
	C9.937233,94.560501 13.553576,87.891624 17.931353,81.767021 
	C20.582014,78.058685 25.134462,76.813583 29.699144,77.041122 
	C37.837368,77.446808 45.642925,77.082390 51.356430,69.309715 
	C52.037441,72.855705 52.306828,75.597427 53.116592,78.168976 
	C54.414589,82.291000 57.755791,83.231598 61.623009,82.723099 
	C71.217476,81.461533 78.585495,76.753838 83.746971,68.668755 
	C84.000000,79.624069 84.000000,90.248131 84.000000,101.000000 
	C58.312565,101.000000 32.624939,101.000000 6.468658,101.000000 
z"/>
<path fill="#00FECE" opacity="1.000000" stroke="none" 
	d="
M63.600002,1.000000 
	C63.999817,2.517800 64.065468,4.039015 63.986946,5.552752 
	C63.763054,9.868959 60.789658,12.679562 56.557186,13.056571 
	C54.675602,13.224174 52.873772,14.295947 50.992695,14.458161 
	C48.627087,14.662159 45.002895,15.248274 44.121849,14.050803 
	C42.912071,12.406529 43.434204,9.185769 43.857788,6.752570 
	C44.122158,5.233952 45.572552,3.921804 46.490715,2.517002 
	C46.876453,2.699477 47.262192,2.881953 47.647926,3.064428 
	C47.856812,4.642237 48.065693,6.220047 48.286919,7.891080 
	C53.001060,8.196404 52.975712,3.980089 54.346146,1.254694 
	C54.750000,1.000000 55.500000,1.000000 56.267227,1.250289 
	C56.911713,2.972609 57.538971,4.444640 58.166229,5.916670 
	C58.558437,5.888441 58.950645,5.860210 59.342850,5.831981 
	C59.561901,4.221321 59.780949,2.610660 60.000000,1.000000 
	C61.066669,1.000000 62.133339,1.000000 63.600002,1.000000 
z"/>
<path fill="#000000" opacity="1.000000" stroke="none" 
	d="
M59.625000,1.000000 
	C59.780949,2.610660 59.561901,4.221321 59.342850,5.831981 
	C58.950645,5.860210 58.558437,5.888441 58.166229,5.916670 
	C57.538971,4.444640 56.911713,2.972609 56.642227,1.250289 
	C57.750000,1.000000 58.500000,1.000000 59.625000,1.000000 
z"/>
</svg>