<?xml version="1.0" encoding="UTF-8"?>
<!DOCTYPE svg PUBLIC "-//W3C//DTD SVG 1.1//EN" "http://www.w3.org/Graphics/SVG/1.1/DTD/svg11.dtd">
<!-- Creator: CorelDRAW 2021 (64-Bit) -->
<svg xmlns="http://www.w3.org/2000/svg"
viewBox="0 0 76.55 101.32"
 xmlns:xlink="http://www.w3.org/1999/xlink"
 xmlns:xodm="http://www.corel.com/coreldraw/odm/2003">
 <defs>
  <style type="text/css">
   <![CDATA[
    .fil0 {fill:#00FFCC}
   ]]>
  </style>
 </defs>
 <g id="Layer_x0020_1">
  <metadata id="CorelCorpID_0Corel-Layer"/>
  <path class="fil0" d="M76.55 56.63c0,7.8 -2.05,13.98 -6.2,18.48 -4.15,4.56 -9.71,6.81 -16.74,6.81 -2.36,0 -3.9,-0.98 -4.73,-3.02 -0.64,-1.61 -1.34,-5.41 -2.04,-11.52 -2.05,3.16 -3.97,5.27 -5.82,6.46 -2.87,1.83 -6.77,2.74 -11.76,2.74 -5.17,0 -8.17,0.28 -9.13,0.78 -3.07,1.61 -5.5,3.79 -7.35,6.53 -0.38,0.63 -2.11,3.79 -5.11,9.56 -2.75,5.27 -4.73,7.87 -6.07,7.87 -1.09,0 -1.6,-0.64 -1.6,-1.83 0,-1.2 1.09,-4.5 3.32,-9.77 8.05,-19.04 15.85,-28.59 23.33,-28.59 12.71,0 19.04,-1.62 19.04,-4.85 0,-1.06 -0.26,-3.66 -0.77,-7.73 -0.58,-4 -0.83,-7.45 -0.89,-10.19 -0.07,-4.35 0.38,-8.22 1.46,-11.66 1.03,-3.44 2.18,-5.13 3.52,-5.13 0.83,0 1.72,2.6 2.68,7.73 0.71,7.45 2.11,18.9 4.09,34.29 0.26,1.68 0.58,2.74 1.02,3.23 0.39,0.49 1.22,0.63 2.56,0.56 5.43,-0.49 8.37,-1.55 8.82,-3.02 0.06,-0.21 0.06,-0.63 0.06,-1.13 0,-1.54 -0.45,-5.9 -1.4,-12.99 -0.96,-7.1 -1.41,-11.6 -1.41,-13.49 0,-4.29 0.64,-8.29 1.92,-11.88 1.21,-3.23 2.3,-4.85 3.32,-4.85 1.15,0 2.49,5.62 3.96,16.8 1.28,9.76 1.92,16.37 1.92,19.81zm-18.98 -53.19c0,2.6 -0.7,4.64 -2.17,6.19 -1.22,1.33 -2.62,1.96 -4.15,1.96 -1.09,0 -1.86,-0.35 -2.37,-1.05 -1.85,1.9 -3.83,2.88 -5.81,2.88 -2.81,0 -4.22,-1.26 -4.22,-3.79 0,-1.48 0.45,-3.17 1.28,-4.92 0.83,-1.76 1.53,-2.67 1.98,-2.67 0.38,0 0.64,0.98 0.7,3.02 0.06,1.61 0.51,2.46 1.34,2.46 1.54,0 2.88,-1.06 3.96,-3.23 1.09,-2.18 1.73,-3.24 1.92,-3.24 0.45,0 0.9,0.71 1.22,2.18 0.31,1.48 0.76,2.25 1.4,2.25 0.83,0 1.53,-0.91 2.11,-2.74 0.57,-1.83 1.09,-2.74 1.41,-2.74 0.95,0 1.4,1.12 1.4,3.44z"/>
 </g>
</svg>
